<svg xmlns="http://www.w3.org/2000/svg" viewBox="0 0 45 45" shape-rendering="crispEdges"><rect width="100%" height="100%" fill="#fff"/><path d="M4 4h7v1h-7zM12 4h2v1h-2zM16 4h2v1h-2zM20 4h4v1h-4zM25 4h2v1h-2zM28 4h1v1h-1zM34 4h7v1h-7zM4 5h1v1h-1zM10 5h1v1h-1zM13 5h1v1h-1zM18 5h1v1h-1zM24 5h2v1h-2zM34 5h1v1h-1zM40 5h1v1h-1zM4 6h1v1h-1zM6 6h3v1h-3zM10 6h1v1h-1zM13 6h1v1h-1zM15 6h2v1h-2zM19 6h1v1h-1zM23 6h2v1h-2zM27 6h1v1h-1zM29 6h1v1h-1zM31 6h1v1h-1zM34 6h1v1h-1zM36 6h3v1h-3zM40 6h1v1h-1zM4 7h1v1h-1zM6 7h3v1h-3zM10 7h1v1h-1zM12 7h2v1h-2zM15 7h9v1h-9zM26 7h2v1h-2zM30 7h1v1h-1zM32 7h1v1h-1zM34 7h1v1h-1zM36 7h3v1h-3zM40 7h1v1h-1zM4 8h1v1h-1zM6 8h3v1h-3zM10 8h1v1h-1zM12 8h3v1h-3zM16 8h3v1h-3zM22 8h2v1h-2zM25 8h1v1h-1zM28 8h2v1h-2zM34 8h1v1h-1zM36 8h3v1h-3zM40 8h1v1h-1zM4 9h1v1h-1zM10 9h1v1h-1zM12 9h1v1h-1zM22 9h1v1h-1zM25 9h2v1h-2zM28 9h4v1h-4zM34 9h1v1h-1zM40 9h1v1h-1zM4 10h7v1h-7zM12 10h1v1h-1zM14 10h1v1h-1zM16 10h1v1h-1zM18 10h1v1h-1zM20 10h1v1h-1zM22 10h1v1h-1zM24 10h1v1h-1zM26 10h1v1h-1zM28 10h1v1h-1zM30 10h1v1h-1zM32 10h1v1h-1zM34 10h7v1h-7zM12 11h5v1h-5zM20 11h3v1h-3zM26 11h1v1h-1zM29 11h1v1h-1zM31 11h2v1h-2zM4 12h1v1h-1zM8 12h1v1h-1zM10 12h3v1h-3zM14 12h1v1h-1zM17 12h1v1h-1zM22 12h2v1h-2zM26 12h3v1h-3zM32 12h6v1h-6zM40 12h1v1h-1zM4 13h1v1h-1zM7 13h2v1h-2zM11 13h1v1h-1zM13 13h1v1h-1zM15 13h4v1h-4zM20 13h2v1h-2zM23 13h2v1h-2zM29 13h4v1h-4zM34 13h1v1h-1zM37 13h1v1h-1zM5 14h1v1h-1zM7 14h4v1h-4zM12 14h1v1h-1zM20 14h3v1h-3zM24 14h3v1h-3zM31 14h4v1h-4zM39 14h1v1h-1zM9 15h1v1h-1zM11 15h2v1h-2zM14 15h1v1h-1zM17 15h1v1h-1zM21 15h1v1h-1zM26 15h1v1h-1zM28 15h1v1h-1zM32 15h1v1h-1zM35 15h1v1h-1zM38 15h1v1h-1zM40 15h1v1h-1zM4 16h5v1h-5zM10 16h1v1h-1zM12 16h1v1h-1zM15 16h1v1h-1zM18 16h2v1h-2zM22 16h3v1h-3zM26 16h2v1h-2zM29 16h4v1h-4zM34 16h4v1h-4zM40 16h1v1h-1zM4 17h1v1h-1zM6 17h2v1h-2zM11 17h2v1h-2zM16 17h1v1h-1zM21 17h2v1h-2zM29 17h2v1h-2zM34 17h1v1h-1zM36 17h2v1h-2zM40 17h1v1h-1zM4 18h1v1h-1zM6 18h1v1h-1zM9 18h3v1h-3zM13 18h1v1h-1zM15 18h2v1h-2zM18 18h1v1h-1zM20 18h1v1h-1zM22 18h6v1h-6zM29 18h1v1h-1zM32 18h1v1h-1zM34 18h1v1h-1zM37 18h3v1h-3zM4 19h1v1h-1zM8 19h2v1h-2zM13 19h1v1h-1zM18 19h3v1h-3zM25 19h1v1h-1zM27 19h1v1h-1zM29 19h1v1h-1zM31 19h1v1h-1zM34 19h1v1h-1zM37 19h2v1h-2zM40 19h1v1h-1zM5 20h1v1h-1zM8 20h5v1h-5zM14 20h2v1h-2zM18 20h3v1h-3zM23 20h2v1h-2zM27 20h1v1h-1zM31 20h3v1h-3zM35 20h2v1h-2zM39 20h1v1h-1zM5 21h3v1h-3zM9 21h1v1h-1zM13 21h2v1h-2zM16 21h1v1h-1zM18 21h1v1h-1zM22 21h2v1h-2zM26 21h1v1h-1zM28 21h3v1h-3zM35 21h2v1h-2zM40 21h1v1h-1zM6 22h2v1h-2zM9 22h2v1h-2zM12 22h1v1h-1zM16 22h2v1h-2zM19 22h1v1h-1zM21 22h1v1h-1zM23 22h1v1h-1zM25 22h5v1h-5zM32 22h1v1h-1zM37 22h3v1h-3zM4 23h2v1h-2zM7 23h2v1h-2zM11 23h3v1h-3zM16 23h6v1h-6zM23 23h5v1h-5zM29 23h1v1h-1zM32 23h1v1h-1zM34 23h1v1h-1zM36 23h4v1h-4zM5 24h3v1h-3zM10 24h3v1h-3zM15 24h3v1h-3zM22 24h1v1h-1zM24 24h1v1h-1zM28 24h2v1h-2zM32 24h1v1h-1zM34 24h1v1h-1zM40 24h1v1h-1zM6 25h1v1h-1zM8 25h1v1h-1zM12 25h1v1h-1zM15 25h3v1h-3zM20 25h1v1h-1zM22 25h6v1h-6zM31 25h1v1h-1zM38 25h2v1h-2zM5 26h2v1h-2zM8 26h1v1h-1zM10 26h2v1h-2zM16 26h2v1h-2zM21 26h1v1h-1zM27 26h2v1h-2zM30 26h2v1h-2zM33 26h2v1h-2zM36 26h2v1h-2zM39 26h1v1h-1zM4 27h1v1h-1zM6 27h1v1h-1zM8 27h1v1h-1zM11 27h4v1h-4zM17 27h1v1h-1zM19 27h6v1h-6zM26 27h2v1h-2zM29 27h1v1h-1zM32 27h2v1h-2zM36 27h3v1h-3zM40 27h1v1h-1zM4 28h4v1h-4zM9 28h2v1h-2zM12 28h2v1h-2zM15 28h1v1h-1zM17 28h3v1h-3zM22 28h2v1h-2zM26 28h1v1h-1zM28 28h2v1h-2zM31 28h1v1h-1zM34 28h1v1h-1zM37 28h2v1h-2zM4 29h6v1h-6zM11 29h3v1h-3zM15 29h2v1h-2zM18 29h1v1h-1zM20 29h1v1h-1zM23 29h2v1h-2zM29 29h5v1h-5zM35 29h2v1h-2zM40 29h1v1h-1zM7 30h2v1h-2zM10 30h1v1h-1zM12 30h2v1h-2zM18 30h1v1h-1zM20 30h1v1h-1zM24 30h1v1h-1zM32 30h1v1h-1zM37 30h1v1h-1zM39 30h1v1h-1zM6 31h1v1h-1zM8 31h2v1h-2zM12 31h1v1h-1zM21 31h2v1h-2zM25 31h1v1h-1zM28 31h1v1h-1zM34 31h2v1h-2zM37 31h1v1h-1zM4 32h3v1h-3zM9 32h2v1h-2zM12 32h1v1h-1zM14 32h2v1h-2zM17 32h4v1h-4zM23 32h2v1h-2zM27 32h3v1h-3zM32 32h5v1h-5zM39 32h2v1h-2zM12 33h1v1h-1zM15 33h4v1h-4zM21 33h1v1h-1zM23 33h2v1h-2zM28 33h1v1h-1zM31 33h2v1h-2zM36 33h2v1h-2zM39 33h1v1h-1zM4 34h7v1h-7zM12 34h1v1h-1zM14 34h2v1h-2zM17 34h4v1h-4zM22 34h1v1h-1zM24 34h3v1h-3zM29 34h2v1h-2zM32 34h1v1h-1zM34 34h1v1h-1zM36 34h4v1h-4zM4 35h1v1h-1zM10 35h1v1h-1zM13 35h3v1h-3zM17 35h1v1h-1zM19 35h1v1h-1zM25 35h1v1h-1zM27 35h1v1h-1zM29 35h1v1h-1zM32 35h1v1h-1zM36 35h1v1h-1zM39 35h1v1h-1zM4 36h1v1h-1zM6 36h3v1h-3zM10 36h1v1h-1zM12 36h7v1h-7zM20 36h1v1h-1zM23 36h2v1h-2zM28 36h3v1h-3zM32 36h6v1h-6zM4 37h1v1h-1zM6 37h3v1h-3zM10 37h1v1h-1zM14 37h1v1h-1zM16 37h3v1h-3zM22 37h2v1h-2zM26 37h1v1h-1zM28 37h1v1h-1zM31 37h3v1h-3zM40 37h1v1h-1zM4 38h1v1h-1zM6 38h3v1h-3zM10 38h1v1h-1zM19 38h1v1h-1zM21 38h1v1h-1zM23 38h1v1h-1zM27 38h1v1h-1zM29 38h2v1h-2zM32 38h4v1h-4zM37 38h1v1h-1zM39 38h1v1h-1zM4 39h1v1h-1zM10 39h1v1h-1zM13 39h2v1h-2zM16 39h2v1h-2zM19 39h2v1h-2zM23 39h3v1h-3zM28 39h1v1h-1zM37 39h1v1h-1zM4 40h7v1h-7zM12 40h2v1h-2zM15 40h2v1h-2zM18 40h1v1h-1zM20 40h1v1h-1zM22 40h1v1h-1zM26 40h6v1h-6zM35 40h2v1h-2zM38 40h1v1h-1zM40 40h1v1h-1z" fill="#000"/></svg>